<?xml version="1.0" encoding="utf-8"?>
<svg version="1.1" id="Capa_1" xmlns="http://www.w3.org/2000/svg" xmlns:xlink="http://www.w3.org/1999/xlink"
     x="0px" y="0px" viewBox="0 0 1080 1080" style="enable-background:new 0 0 1080 1080;" xml:space="preserve">
  <style type="text/css">
    .st0{fill-rule:evenodd;clip-rule:evenodd;fill:#FFFFFF;}
    .st1{fill-rule:evenodd;clip-rule:evenodd;fill:#FFFFFF;}
  </style>
  <path class="st0" d="M548.43,983.19c-142.28-2.62-259.5-43.52-349.94-144.99c-66.08-74.22-100.1-162.28-107-261.41
    c-7.01-100.74,12.53-194.89,66.77-280.75C218.25,200.88,304.67,141,413.28,113.84c124.23-31.08,245.13-20.94,357.88,41.38
    C901.01,226.9,969.97,340.59,986.4,486.26c11.38,100.05-4.6,195.6-56.08,283.53c-71.02,121.47-179.4,186.84-316.73,207.54
    C589.11,981.02,564.17,981.82,548.43,983.19 M748.62,696.84c4.6-7.8,7.47-12.52,10.23-17.39c28.16-51.7,35.4-107.4,32.06-165.3
    c-7.59-130.39-97.57-224.78-227.67-238.08c-102.51-10.47-198.93,40.13-244.9,129.73c-30.34,58.88-35.51,121.8-26.66,186.38
    C311.8,738.8,405.58,828.32,528.66,850.35c53.67,9.63,106.53,8.67,154.92-20.93c14.59-8.96,26.89-21.57,40.34-32.51
    c-0.92-1.05-1.84-2.09-2.76-3.14c-33.22,18.01-43.9,21.41-67.69,21.71c-83.66,1.04-171.35-58.43-205.83-139.69
    c-19.42-45.72-23.33-93.02-15.86-138.72c29.42,8.32,57.46,17.28,85.96,23.97c23.56,5.54,48.04,7.31,71.71,12.66
    C659.79,589.61,720.47,618.96,748.62,696.84z M702.19,773.36c0.69-26.15-9.08-47.86-25.97-66.65
    c-23.1-25.65-52.29-42.42-83.55-55.73c-47.12-20.07-97.11-34.82-134.92-73.13c8.74,14.46,17.47,29.77,30.46,38.89
    c24.02,16.78,49.76,31.68,76.19,44.18c43.33,20.46,84.81,43,115.84,80.68C688.4,751.53,694.95,762.74,702.19,773.36z"/>
</svg>
